<?xml version="1.0" encoding="utf-8"?>
<!-- Generator: Adobe Illustrator 25.4.1, SVG Export Plug-In . SVG Version: 6.00 Build 0)  -->
<svg version="1.1" id="Capa_1" xmlns="http://www.w3.org/2000/svg" xmlns:xlink="http://www.w3.org/1999/xlink" x="0px" y="0px"
	 viewBox="0 0 200 40.93" style="enable-background:new 0 0 200 40.93;" xml:space="preserve">
<style type="text/css">
	.st0{fill:url(#SVGID_1_);}
	.st1{fill:#E95C13;}
	.st2{fill:#28170F;}
</style>
<g>
	<g>
		<g>
			<g>
				<linearGradient id="SVGID_1_" gradientUnits="userSpaceOnUse" x1="57.6418" y1="35.0215" x2="57.6418" y2="4.6407">
					<stop  offset="0" style="stop-color:#E95C13"/>
					<stop  offset="0.4471" style="stop-color:#E95E13"/>
					<stop  offset="0.6081" style="stop-color:#EB6511"/>
					<stop  offset="0.7229" style="stop-color:#ED700F"/>
					<stop  offset="0.8157" style="stop-color:#F1810C"/>
					<stop  offset="0.8952" style="stop-color:#F69708"/>
					<stop  offset="0.9643" style="stop-color:#FBB203"/>
					<stop  offset="1" style="stop-color:#FFC300"/>
				</linearGradient>
				<path class="st0" d="M57.64,35.02c-0.58-1.27-3.19-6.94-4.18-7.93c-1.12-1.12-1.73-2.6-1.73-4.18V10.56
					c0-3.26,2.65-5.91,5.92-5.91c3.26,0,5.91,2.65,5.91,5.91v12.36c0,1.56-0.6,3.03-1.7,4.14C60.87,28.07,58.23,33.75,57.64,35.02z
					 M57.64,8.46c-1.15,0-2.09,0.94-2.09,2.09v12.36c0,1.15,0.94,2.09,2.09,2.09s2.09-0.94,2.09-2.09V10.56
					C59.73,9.4,58.79,8.46,57.64,8.46z"/>
				<path class="st1" d="M57.64,4.76c3.19,0,5.79,2.6,5.79,5.79v12.36c0,1.53-0.59,2.97-1.66,4.06c-0.95,0.97-3.38,6.13-4.13,7.76
					c-0.75-1.63-3.14-6.77-4.09-7.72c-1.1-1.1-1.7-2.55-1.7-4.09V10.56C51.85,7.36,54.45,4.76,57.64,4.76 M57.64,25.12
					c1.22,0,2.21-0.99,2.21-2.21V10.56c0-1.22-0.99-2.21-2.21-2.21s-2.21,0.99-2.21,2.21v12.36C55.43,24.13,56.42,25.12,57.64,25.12
					 M57.64,4.52c-3.33,0-6.04,2.71-6.04,6.04v12.36c0,1.66,0.68,3.17,1.77,4.27c1.09,1.09,4.27,8.14,4.27,8.14s3.21-7.06,4.31-8.18
					c1.07-1.09,1.73-2.58,1.73-4.23V10.56C63.68,7.23,60.97,4.52,57.64,4.52L57.64,4.52z M57.64,24.88c-1.09,0-1.97-0.88-1.97-1.97
					V10.56c0-1.09,0.88-1.97,1.97-1.97c1.09,0,1.97,0.88,1.97,1.97v12.36C59.61,24,58.73,24.88,57.64,24.88L57.64,24.88z"/>
			</g>
		</g>
		<path class="st2" d="M62.5,33.41h-2.41l-2.45,3.45l-2.44-3.45h-1.56c-1.12,0-2.03,0.91-2.03,2.03c0,1.12,0.91,2.03,2.03,2.03h8.01
			c1.12,0,2.03-0.91,2.03-2.03C63.68,34.32,62.77,33.41,62.5,33.41z"/>
	</g>
	<g>
		<path class="st2" d="M8.48,4.52c-3.34,0-6.06,2.72-6.06,6.06v20.95c0,3.34,2.72,6.06,6.06,6.06s6.06-2.72,6.06-6.06V30.3h-4.08
			v1.22c0,1.09-0.89,1.97-1.97,1.97c-1.09,0-1.97-0.89-1.97-1.97V10.57c0-1.09,0.89-1.97,1.97-1.97c1.09,0,1.97,0.89,1.97,1.97v3.67
			h4.08v-3.67C14.53,7.23,11.82,4.52,8.48,4.52z"/>
		<path class="st2" d="M164.51,4.54c-3.34,0-6.05,2.71-6.05,6.05v20.92c0,3.34,2.71,6.05,6.05,6.05c3.34,0,6.05-2.71,6.05-6.05
			v-1.22h-4.08v1.22c0,1.09-0.88,1.97-1.97,1.97c-1.09,0-1.97-0.88-1.97-1.97V10.59c0-1.09,0.88-1.97,1.97-1.97
			c1.09,0,1.97,0.88,1.97,1.97v3.66h4.08v-3.66C170.56,7.25,167.84,4.54,164.51,4.54z"/>
		<path class="st2" d="M24.89,4.52c-3.34,0-6.06,2.72-6.06,6.06v20.95c0,3.34,2.72,6.06,6.06,6.06h5.65V33.5h-5.65
			c-1.09,0-1.97-0.89-1.97-1.97V29.2h1.97c3.34,0,6.06-2.72,6.06-6.06V10.57C30.94,7.23,28.23,4.52,24.89,4.52z M26.86,23.14
			c0,1.09-0.89,1.97-1.97,1.97h-1.97V10.57c0-1.09,0.89-1.97,1.97-1.97s1.97,0.89,1.97,1.97V23.14z"/>
		<rect x="84.6" y="4.59" class="st2" width="4.08" height="32.99"/>
		<rect x="175.54" y="4.59" class="st2" width="4.08" height="32.99"/>
		<path class="st2" d="M41.12,4.52c-3.34,0-6.06,2.72-6.06,6.06l0,27.02h4.08l0-11.54l3.38,3.44c0.37,0.37,0.57,0.86,0.57,1.38
			l0,6.72l4.08,0l0-6.72c0-1.6-0.62-3.11-1.74-4.25l-1.91-1.95c2.15-0.93,3.65-3.07,3.65-5.56v-8.55
			C47.18,7.23,44.46,4.52,41.12,4.52z M39.15,10.57c0-1.09,0.89-1.97,1.97-1.97c1.09,0,1.97,0.89,1.97,1.97v8.55
			c0,1.09-0.89,1.97-1.97,1.97h-1.97L39.15,10.57z"/>
		<path class="st2" d="M76.13,16.92h-1.97c-3.34,0-6.05,2.71-6.05,6.05v8.54c0,3.34,2.71,6.05,6.05,6.05s6.05-2.71,6.05-6.05
			l0-26.99h-4.08L76.13,16.92z M76.13,31.51c0,1.09-0.88,1.97-1.97,1.97s-1.97-0.88-1.97-1.97v-8.54c0-1.09,0.88-1.97,1.97-1.97
			h1.97L76.13,31.51z"/>
		<path class="st2" d="M136.15,10.59c0-3.34-2.71-6.05-6.05-6.05c-3.34,0-6.05,2.71-6.05,6.05l0,26.99h4.08l0-12.4h1.97
			c0.69,0,1.35-0.12,1.97-0.33l0,12.73h4.08l0-19.81h0V10.59z M130.1,21.1h-1.97V10.59c0-1.09,0.88-1.97,1.97-1.97
			s1.97,0.88,1.97,1.97v7.18l0,1.36C132.08,20.22,131.19,21.1,130.1,21.1z"/>
		<path class="st2" d="M196.48,10.59c0-3.34-2.71-6.05-6.05-6.05c-3.34,0-6.05,2.71-6.05,6.05l0,26.99h4.08l0-12.4h1.97
			c0.69,0,1.35-0.12,1.97-0.33l0,12.73h4.08l0-19.81h0V10.59z M190.43,21.1h-1.97l0-10.52c0-1.09,0.88-1.97,1.97-1.97
			c1.09,0,1.97,0.88,1.97,1.97v7.18h0v1.37C192.4,20.22,191.51,21.1,190.43,21.1z"/>
		<path class="st2" d="M99.44,4.54h-0.53c-3.34,0-6.05,2.71-6.05,6.05v12.38c0,3.34,2.71,6.05,6.05,6.05h0.53
			c1.09,0,1.97,0.88,1.97,1.97v0.52c0,1.09-0.88,1.97-1.97,1.97H92.9v4.08h6.54c3.34,0,6.05-2.71,6.05-6.05v-0.52
			c0-3.34-2.71-6.05-6.05-6.05h-0.53c-1.09,0-1.97-0.88-1.97-1.97V10.59c0-1.09,0.88-1.97,1.97-1.97h0.53
			c1.09,0,1.97,0.88,1.97,1.97v7.71h4.08v-7.71C105.49,7.25,102.78,4.54,99.44,4.54z"/>
		<polygon class="st2" points="108.7,8.61 112.53,8.61 112.53,37.58 116.61,37.58 116.61,8.61 120.92,8.61 120.92,4.54 108.7,4.54 
					"/>
		<polygon class="st2" points="149.69,21.05 145.01,5.54 145.01,4.59 140.93,4.59 140.93,37.58 145.01,37.58 145.01,19.63 
			149.69,35.14 149.69,37.58 153.77,37.58 153.77,4.59 149.69,4.59 		"/>
	</g>
</g>
</svg>
