<?xml version="1.0" encoding="utf-8"?>
<!-- Generator: Adobe Illustrator 25.4.1, SVG Export Plug-In . SVG Version: 6.00 Build 0)  -->
<svg version="1.1" id="Capa_1" xmlns="http://www.w3.org/2000/svg" xmlns:xlink="http://www.w3.org/1999/xlink" x="0px" y="0px"
	 viewBox="0 0 200 123.37" style="enable-background:new 0 0 200 123.37;" xml:space="preserve">
<style type="text/css">
	.st0{fill:url(#SVGID_1_);}
	.st1{fill:#E95C13;}
	.st2{fill:#28170F;}
</style>
<g>
	<g>
		<g>
			<g>
				<linearGradient id="SVGID_1_" gradientUnits="userSpaceOnUse" x1="22.9089" y1="109.654" x2="22.9089" y2="5.6648">
					<stop  offset="0" style="stop-color:#E95C13"/>
					<stop  offset="0.4471" style="stop-color:#E95E13"/>
					<stop  offset="0.6081" style="stop-color:#EB6511"/>
					<stop  offset="0.7229" style="stop-color:#ED700F"/>
					<stop  offset="0.8157" style="stop-color:#F1810C"/>
					<stop  offset="0.8952" style="stop-color:#F69708"/>
					<stop  offset="0.9643" style="stop-color:#FBB203"/>
					<stop  offset="1" style="stop-color:#FFC300"/>
				</linearGradient>
				<path class="st0" d="M22.91,109.65C20.93,105.29,12,85.91,8.6,82.51C4.77,78.68,2.66,73.6,2.66,68.2V25.91
					c0-11.16,9.08-20.25,20.25-20.25s20.25,9.08,20.25,20.25V68.2c0,5.33-2.06,10.37-5.81,14.18
					C33.94,85.85,24.91,105.29,22.91,109.65z M22.91,18.76c-3.95,0-7.16,3.21-7.16,7.16V68.2c0,3.95,3.21,7.16,7.16,7.16
					c3.95,0,7.16-3.21,7.16-7.16V25.91C30.06,21.97,26.85,18.76,22.91,18.76z"/>
				<path class="st1" d="M22.91,6.08c10.93,0,19.83,8.89,19.83,19.83V68.2c0,5.22-2.02,10.15-5.69,13.89
					c-3.27,3.33-11.55,20.97-14.14,26.56c-2.56-5.59-10.75-23.17-14.02-26.43c-3.75-3.75-5.81-8.73-5.81-14.01V25.91
					C3.08,14.98,11.98,6.08,22.91,6.08 M22.91,75.78c4.18,0,7.57-3.4,7.57-7.57V25.91c0-4.18-3.4-7.57-7.57-7.57
					s-7.57,3.4-7.57,7.57V68.2C15.33,72.38,18.73,75.78,22.91,75.78 M22.91,5.25c-11.39,0-20.66,9.27-20.66,20.66V68.2
					c0,5.7,2.32,10.86,6.06,14.61c3.74,3.74,14.61,27.86,14.61,27.86S33.89,86.5,37.65,82.68c3.66-3.73,5.93-8.84,5.93-14.47V25.91
					C43.57,14.52,34.3,5.25,22.91,5.25L22.91,5.25z M22.91,74.94c-3.71,0-6.74-3.02-6.74-6.74V25.91c0-3.71,3.02-6.74,6.74-6.74
					c3.71,0,6.74,3.02,6.74,6.74V68.2C29.65,71.92,26.62,74.94,22.91,74.94L22.91,74.94z"/>
			</g>
		</g>
		<path class="st2" d="M39.54,104.13h-8.25l-8.39,11.8l-8.34-11.8H9.21c-3.85,0-6.96,3.12-6.96,6.96c0,3.85,3.12,6.96,6.96,6.96
			h27.4c3.85,0,6.96-3.12,6.96-6.96C43.57,107.25,40.46,104.13,39.54,104.13z"/>
	</g>
	<g>
		<path class="st2" d="M70.35,5.25c-7.43,0-13.48,6.05-13.48,13.48v46.62c0,7.43,6.05,13.48,13.48,13.48s13.48-6.05,13.48-13.48
			v-2.72h-9.08v2.72c0,2.42-1.97,4.39-4.39,4.39c-2.42,0-4.39-1.97-4.39-4.39V18.72c0-2.42,1.97-4.39,4.39-4.39
			c2.42,0,4.39,1.97,4.39,4.39v8.16h9.08v-8.16C83.83,11.29,77.78,5.25,70.35,5.25z"/>
		<path class="st2" d="M159.39,82.92c-3.55,0-6.43,2.89-6.43,6.43v22.25c0,3.55,2.89,6.43,6.43,6.43s6.43-2.89,6.43-6.43v-1.3h-4.34
			v1.3c0,1.16-0.94,2.1-2.1,2.1c-1.16,0-2.1-0.94-2.1-2.1V89.35c0-1.16,0.94-2.1,2.1-2.1c1.16,0,2.1,0.94,2.1,2.1v3.89h4.34v-3.89
			C165.82,85.81,162.93,82.92,159.39,82.92z"/>
		<path class="st2" d="M106.87,5.25c-7.43,0-13.48,6.05-13.48,13.48v46.62c0,7.43,6.05,13.48,13.48,13.48h12.57v-9.08h-12.57
			c-2.42,0-4.39-1.97-4.39-4.39v-5.17h4.39c7.43,0,13.48-6.05,13.48-13.48V18.72C120.35,11.29,114.3,5.25,106.87,5.25z
			 M111.26,46.69c0,2.42-1.97,4.39-4.39,4.39h-4.39V18.72c0-2.42,1.97-4.39,4.39-4.39s4.39,1.97,4.39,4.39V46.69z"/>
		<rect x="74.41" y="82.98" class="st2" width="4.34" height="35.08"/>
		<rect x="171.12" y="82.98" class="st2" width="4.34" height="35.08"/>
		<path class="st2" d="M143,5.25c-7.43,0-13.48,6.05-13.48,13.48l0,60.13h9.08l0-25.69l7.53,7.65c0.81,0.83,1.26,1.92,1.26,3.08
			l0,14.95l9.08,0l0-14.96c0-3.56-1.37-6.91-3.87-9.45l-4.26-4.33c4.78-2.07,8.13-6.84,8.13-12.37V18.72
			C156.48,11.29,150.43,5.25,143,5.25z M138.61,18.72c0-2.42,1.97-4.39,4.39-4.39c2.42,0,4.39,1.97,4.39,4.39v19.04
			c0,2.42-1.97,4.39-4.39,4.39h-4.39L138.61,18.72z"/>
		<path class="st2" d="M65.41,96.09h-2.1c-3.55,0-6.43,2.89-6.43,6.43v9.09c0,3.55,2.89,6.43,6.43,6.43s6.43-2.89,6.43-6.43l0-28.7
			h-4.34L65.41,96.09z M65.41,111.61c0,1.16-0.94,2.1-2.1,2.1s-2.1-0.94-2.1-2.1v-9.09c0-1.16,0.94-2.1,2.1-2.1h2.1L65.41,111.61z"
			/>
		<path class="st2" d="M129.24,89.35c0-3.55-2.89-6.43-6.43-6.43c-3.55,0-6.43,2.89-6.43,6.43l0,28.7h4.34l0-13.18h2.1
			c0.73,0,1.44-0.13,2.1-0.35l0,13.54h4.34l0-21.06h0V89.35z M122.8,100.54h-2.1V89.36c0-1.16,0.94-2.1,2.1-2.1s2.1,0.94,2.1,2.1
			v7.64l0,1.45C124.9,99.6,123.96,100.54,122.8,100.54z"/>
		<path class="st2" d="M193.38,89.35c0-3.55-2.89-6.43-6.43-6.43s-6.43,2.89-6.43,6.43l0,28.7h4.34l0-13.18h2.1
			c0.73,0,1.44-0.13,2.1-0.35l0,13.54h4.34l0-21.06h0V89.35z M186.95,100.54h-2.1l0-11.18c0-1.16,0.94-2.1,2.1-2.1
			c1.16,0,2.1,0.94,2.1,2.1v7.64h0v1.45C189.04,99.6,188.1,100.54,186.95,100.54z"/>
		<path class="st2" d="M179.9,5.25c-7.43,0-13.48,6.05-13.48,13.48V65.4c0,7.43,6.05,13.48,13.48,13.48s13.48-6.05,13.48-13.48
			V18.72C193.38,11.29,187.33,5.25,179.9,5.25z M184.3,65.4c0,2.42-1.97,4.39-4.39,4.39s-4.39-1.97-4.39-4.39V18.72
			c0-2.42,1.97-4.39,4.39-4.39s4.39,1.97,4.39,4.39V65.4z"/>
		<path class="st2" d="M90.2,82.92h-0.56c-3.55,0-6.43,2.89-6.43,6.43v13.16c0,3.55,2.89,6.43,6.43,6.43h0.56
			c1.16,0,2.1,0.94,2.1,2.1v0.56c0,1.16-0.94,2.1-2.1,2.1h-6.96v4.34h6.96c3.55,0,6.43-2.89,6.43-6.43v-0.56
			c0-3.55-2.89-6.43-6.43-6.43h-0.56c-1.16,0-2.1-0.94-2.1-2.1V89.35c0-1.16,0.94-2.1,2.1-2.1h0.56c1.16,0,2.1,0.94,2.1,2.1v8.2
			h4.34v-8.2C96.63,85.81,93.74,82.92,90.2,82.92z"/>
		<polygon class="st2" points="100.05,87.26 104.11,87.26 104.11,118.06 108.45,118.06 108.45,87.26 113.04,87.26 113.04,82.92 
			100.05,82.92 		"/>
		<polygon class="st2" points="143.63,100.48 138.65,83.99 138.65,82.98 134.31,82.98 134.31,118.06 138.65,118.06 138.65,98.97 
			143.63,115.47 143.63,118.06 147.97,118.06 147.97,82.98 143.64,82.98 		"/>
	</g>
</g>
</svg>
